<svg width="322" height="74" viewBox="0 0 322 74" fill="none" xmlns="http://www.w3.org/2000/svg">
<g clip-path="url(#clip0_579_19515)">
<path d="M90.0222 16.4244V33.5526H100.409C100.409 35.848 98.5431 37.7074 96.2396 37.7074H90.0222V60.8801H85.4883V12.2695H100.992C100.992 14.565 99.1265 16.4244 96.8231 16.4244H90.0222Z" fill="#F5F1D7"/>
<path d="M123.006 52.9351C123.006 58.1801 119.718 61.3901 114.522 61.3901C109.325 61.3901 106.037 58.1862 106.037 52.9351V28.3027H110.133V50.3852C110.133 53.7346 110.279 57.526 114.667 57.526C119.055 57.526 118.91 53.1531 118.91 49.9492V32.3849C118.91 30.1318 120.745 28.3027 123.006 28.3027V52.9351Z" fill="#F5F1D7"/>
<path d="M147.214 64.4479C147.214 70.3532 144.947 73.9932 138.656 73.9932C132.956 73.9932 130.172 70.4198 130.172 64.9567C130.172 64.5206 130.172 64.0845 130.245 63.7151H134.414C134.414 66.9917 134.779 70.1291 138.875 70.1291C142.972 70.1291 143.044 66.9251 143.044 63.7878V58.5427C141.58 60.1477 140.048 60.8745 137.854 60.8745C129.589 60.8745 129.516 49.7969 129.516 43.8917C129.516 38.4286 130.099 27.7871 137.635 27.7871C139.975 27.7871 141.586 28.7319 143.051 30.555V28.2959H147.22V64.4419L147.214 64.4479ZM138.511 31.1425C134.122 31.1425 133.758 38.6467 133.758 45.424C133.758 48.9248 133.831 57.5191 138.875 57.5191C142.534 57.5191 143.044 53.2189 143.263 50.5237C143.482 47.8285 143.482 45.2787 143.482 42.6562C143.482 39.2281 143.482 31.1425 138.511 31.1425Z" fill="#F5F1D7"/>
<path d="M154.305 57.0532V11.9434C156.608 11.9434 158.474 13.6574 158.474 15.7712V60.881C156.171 60.881 154.305 59.167 154.305 57.0532Z" fill="#F5F1D7"/>
<path d="M182.31 49.8028C182.091 55.0478 180.481 61.3891 174.044 61.3891C165.633 61.3891 164.539 50.9657 164.539 44.7031C164.539 38.7979 165.785 27.793 173.753 27.793C181.721 27.793 182.602 37.6289 182.602 43.3888C182.602 44.0429 182.529 44.7758 182.529 45.4299H168.708V46.1567C168.708 49.4333 169.219 57.525 173.899 57.525C177.557 57.525 178.068 52.5707 178.141 49.7967H182.31V49.8028ZM178.512 41.9292C178.366 39.0159 178.001 31.5784 173.832 31.5784C169.663 31.5784 168.933 38.9372 168.787 41.9292H178.512Z" fill="#F5F1D7"/>
<path d="M205.497 60.881C203.236 60.881 201.4 59.0519 201.4 56.7988V37.1935C201.4 34.571 201.327 31.1429 197.742 31.1429C196.204 31.1429 194.672 31.9424 193.864 33.2567C192.77 34.9344 192.77 37.0481 192.77 38.9439V60.881H188.674V11.9434C190.935 11.9434 192.77 13.7725 192.77 16.0255V30.9249C194.381 29.1018 196.575 27.7936 199.133 27.7936C204.47 27.7936 205.497 31.585 205.497 36.176V60.881Z" fill="#F5F1D7"/>
<path d="M215.076 21.0881C212.681 21.0881 210.876 18.2778 212.839 16.0248C213.41 15.3706 214.213 14.9648 215.076 14.9648C216.832 14.9648 218.145 16.3518 218.145 18.0961C218.145 19.7011 216.753 21.082 215.076 21.082V21.0881ZM212.955 73.9989V32.5291C212.955 30.1973 214.851 28.3016 217.197 28.3016V69.7653C217.197 72.0971 215.301 73.9928 212.955 73.9928V73.9989Z" fill="#F5F1D7"/>
<path d="M240.966 49.8028C240.748 55.0478 239.137 61.3891 232.701 61.3891C224.289 61.3891 223.195 50.9657 223.195 44.7031C223.195 38.7979 224.441 27.793 232.409 27.793C240.377 27.793 241.258 37.6289 241.258 43.3888C241.258 44.0429 241.185 44.7758 241.185 45.4299H227.365V46.1567C227.365 49.4333 227.875 57.525 232.555 57.525C236.214 57.525 236.724 52.5707 236.797 49.7967H240.966V49.8028ZM237.162 41.9292C237.016 39.0159 236.651 31.5784 232.482 31.5784C228.313 31.5784 227.583 38.9372 227.438 41.9292H237.162Z" fill="#F5F1D7"/>
<path d="M247.33 57.0532V11.9434C249.633 11.9434 251.499 13.6574 251.499 15.7712V60.881C249.196 60.881 247.33 59.167 247.33 57.0532Z" fill="#F5F1D7"/>
<path d="M262.907 30.4882C264.299 28.6651 265.757 27.793 268.097 27.793C276.144 27.793 276.217 38.0711 276.217 43.9702C276.217 50.9657 275.998 61.3891 268.541 61.3891C265.982 61.3891 264.445 60.1475 262.907 58.2579V73.9991C260.646 73.9991 258.811 72.17 258.811 69.9169V28.3017H262.907V30.4882ZM267.149 31.0696C262.907 31.0696 262.542 37.9197 262.542 44.4063C262.542 47.2469 262.542 54.9025 264.59 56.9436C265.32 57.743 266.128 58.0338 267.222 58.0338C271.027 58.0338 271.464 53.3702 271.756 50.5296C271.975 47.9797 271.975 45.4299 271.975 42.8801C271.975 39.6034 271.902 31.0757 267.149 31.0757V31.0696Z" fill="#F5F1D7"/>
<path d="M298.814 49.8028C298.595 55.0478 296.985 61.3891 290.548 61.3891C282.137 61.3891 281.043 50.9657 281.043 44.7031C281.043 38.7979 282.289 27.793 290.257 27.793C298.224 27.793 299.106 37.6289 299.106 43.3888C299.106 44.0429 299.033 44.7758 299.033 45.4299H285.212V46.1567C285.212 49.4333 285.723 57.525 290.403 57.525C294.061 57.525 294.572 52.5707 294.645 49.7967H298.814V49.8028ZM295.009 41.9292C294.864 39.0159 294.499 31.5784 290.33 31.5784C286.16 31.5784 285.431 38.9372 285.285 41.9292H295.009Z" fill="#F5F1D7"/>
<path d="M322.001 60.8804C319.74 60.8804 317.904 59.0513 317.904 56.7982V37.1929C317.904 34.5703 317.831 31.1423 314.246 31.1423C312.708 31.1423 311.176 31.9418 310.368 33.2561C309.274 34.8611 309.274 37.0475 309.274 38.9432V60.8804H305.178V28.3017H309.274V30.9243C310.885 29.1012 313.079 27.793 315.637 27.793C321.119 27.793 322.001 32.3112 322.001 36.7568V60.8804Z" fill="#F5F1D7"/>
<path d="M36.6657 72.3463C16.8525 72.3463 0.728516 56.2841 0.728516 36.5395C0.728516 16.7948 16.8525 0.726562 36.6657 0.726562C56.4788 0.726562 72.6028 16.7888 72.6028 36.5395C72.6028 56.2902 56.4849 72.3524 36.6657 72.3524V72.3463Z" fill="#2E5629"/>
<path d="M36.6665 1.45359C56.1089 1.45359 71.8743 17.1585 71.8743 36.5397C71.8743 55.9209 56.1149 71.6258 36.6665 71.6258C17.218 71.6258 1.45864 55.9149 1.45864 36.5397C1.45864 17.1645 17.2241 1.45359 36.6665 1.45359ZM36.6665 0C16.4461 0 0 16.3893 0 36.5397C0 56.6901 16.4461 73.0794 36.6665 73.0794C56.8868 73.0794 73.3329 56.6901 73.3329 36.5397C73.3329 16.3893 56.8807 0 36.6665 0Z" fill="#F5F1D7"/>
<path d="M36.6673 68.3194C54.4069 68.3194 68.7876 53.9884 68.7876 36.3101C68.7876 18.6318 54.4069 4.30078 36.6673 4.30078C18.9277 4.30078 4.54688 18.6318 4.54688 36.3101C4.54688 53.9884 18.9277 68.3194 36.6673 68.3194Z" fill="#2E5629"/>
<path d="M36.6667 68.689C18.7558 68.689 4.18164 54.1652 4.18164 36.3163C4.18164 18.4674 18.7498 3.9375 36.6667 3.9375C54.5836 3.9375 69.1517 18.4613 69.1517 36.3102C69.1517 54.1591 54.5775 68.683 36.6667 68.683V68.689ZM36.6667 4.6643C19.157 4.6643 4.90488 18.8611 4.90488 36.3102C4.90488 53.7594 19.1509 67.9562 36.6606 67.9562C54.1703 67.9562 68.4163 53.7594 68.4163 36.3102C68.4163 18.8611 54.1764 4.6643 36.6667 4.6643Z" fill="#F5F1D7"/>
<path d="M52.2858 21.4523C51.7875 20.8224 49.9703 18.6844 46.974 18.2786C44.9197 18 43.3274 18.6723 42.3975 19.0781C37.4868 21.2221 35.5419 26.4732 35.0618 27.8966C24.2193 39.707 13.3767 51.5235 2.52812 63.3339C1.73195 65.1146 1.92644 67.1072 3.03257 68.3125C4.58845 70.0084 7.89469 70.0931 10.0705 67.8401C14.027 62.9948 17.9775 58.1555 21.9341 53.3102C21.9341 53.3102 58.479 57.9193 50.8698 30.4161C50.73 29.9437 50.4443 28.7687 50.8698 27.3938C50.967 27.0728 51.4411 25.6556 52.7113 24.7774C52.8511 24.6805 52.9605 24.6139 53.1124 24.5291C53.5196 24.2929 54.2003 23.9718 55.4401 23.6145C58.3939 22.7666 59.0746 22.6878 59.0867 22.4335C59.105 21.9974 57.1115 21.525 55.6164 21.3675C54.2246 21.2221 53.0577 21.3251 52.2798 21.4402L52.2858 21.4523Z" fill="#F5F1D7"/>
<path d="M6.13197 70.0455C6.13197 70.0455 6.08335 70.0455 6.06512 70.0455C4.72196 70.0273 3.48819 69.5185 2.68595 68.6464C1.45826 67.3139 1.22731 65.1032 2.10249 63.153L2.18758 63.0258L34.6483 27.6611C35.3655 25.5655 37.4866 20.7142 42.2089 18.6549C43.1206 18.2552 44.8162 17.5162 47.0406 17.8191C49.7574 18.1885 51.5685 19.8541 52.4862 20.9564C53.5498 20.8171 54.6195 20.805 55.6709 20.9201C56.856 21.0473 59.6031 21.447 59.5667 22.4766C59.5484 23.0036 59.1838 23.1005 57.6583 23.5184C57.1417 23.6577 56.461 23.8454 55.5797 24.0938C54.6316 24.3663 53.9084 24.651 53.3553 24.9659C53.2155 25.0446 53.1122 25.1052 52.9846 25.19C51.8845 25.9471 51.4348 27.1887 51.3254 27.5521C50.9607 28.7331 51.1734 29.7809 51.3254 30.3018C53.2945 37.4184 52.5166 43.0631 49.0098 47.0969C41.5768 55.6488 24.5594 54.0983 22.1344 53.8318L10.4349 68.1619C9.26196 69.3792 7.70608 70.0576 6.1259 70.0576L6.13197 70.0455ZM2.93513 63.6012C2.24835 65.1941 2.42461 66.9566 3.38487 67.9983C4.01087 68.6767 4.98937 69.0764 6.0712 69.0946C7.40828 69.0885 8.74536 68.5374 9.72994 67.5199L21.7333 52.8143L21.9946 52.8446C22.183 52.8688 40.7867 55.0977 48.2987 46.4609C51.5806 42.6876 52.2917 37.3336 50.4137 30.5501C50.1889 29.7991 50.0005 28.612 50.4137 27.2614C50.5839 26.7042 51.1248 25.3051 52.4437 24.3966C52.5956 24.2936 52.7172 24.2209 52.8813 24.1301C53.5012 23.7788 54.2974 23.4639 55.3184 23.1731C56.2057 22.9188 56.8864 22.731 57.4091 22.5917C57.6948 22.513 57.9561 22.4403 58.1749 22.3797C57.6097 22.1859 56.6494 21.9618 55.5737 21.8467C54.5101 21.7317 53.4283 21.7559 52.3586 21.9194L52.0851 21.9618L51.9149 21.7438C51.295 20.9625 49.575 19.1091 46.913 18.7457C44.9499 18.4793 43.4123 19.1515 42.5857 19.5089C38.1369 21.4531 36.1556 26.1288 35.5113 28.0487L35.4809 28.1456L2.93513 63.6012Z" fill="#2E5629"/>
<path d="M21.6006 50.6152C19.5585 50.6152 17.5164 50.3972 15.5168 49.9732C15.219 49.9126 15.0306 49.6219 15.0975 49.3252C15.1582 49.0284 15.45 48.8406 15.7478 48.9072C17.7473 49.3373 19.7894 49.5371 21.8437 49.525C33.7437 49.4221 43.0486 43.0444 44.2702 37.1574C44.5254 35.94 44.7442 33.5961 43.4011 31.5913C41.0004 27.9937 35.3482 28.4358 35.1112 28.454C34.8134 28.4782 34.5459 28.2602 34.5216 27.9573C34.4973 27.6545 34.7161 27.3941 35.02 27.3698C35.6885 27.3153 41.6021 26.9338 44.3188 30.9857C45.8808 33.3235 45.6316 35.9945 45.3459 37.3815C43.7232 45.1945 31.89 50.5365 21.8558 50.6213C21.7707 50.6213 21.6856 50.6213 21.6066 50.6213L21.6006 50.6152Z" fill="#2E5629"/>
<path d="M22.1827 46.8896C20.8517 46.8896 19.5207 46.7746 18.214 46.5505C18.0134 46.5141 17.8797 46.3264 17.9162 46.1326C17.9526 45.9327 18.141 45.8055 18.3355 45.8358C19.8671 46.1023 21.429 46.2052 22.9849 46.1507C30.2295 45.8903 38.8962 41.9959 39.7531 36.8296C39.8382 36.2966 40.0388 34.4554 38.9448 33.129C37.6503 31.5542 34.8606 31.1545 31.8461 32.0993C31.6577 32.1599 31.4511 32.0509 31.3903 31.8631C31.3295 31.6693 31.4389 31.4694 31.6273 31.4089C34.9761 30.355 37.9967 30.8396 39.51 32.6687C40.7985 34.2313 40.5736 36.339 40.4764 36.9507C39.5526 42.547 30.7035 46.605 23.0153 46.8836C22.7357 46.8957 22.4562 46.8957 22.1827 46.8957V46.8896Z" fill="#2E5629"/>
<path d="M33.7136 60.979C33.5373 60.979 33.3671 60.8942 33.2577 60.7367L28.11 53.1538C27.9398 52.9055 28.0066 52.5663 28.2558 52.3967C28.505 52.2272 28.8454 52.2938 29.0155 52.5421L34.1633 60.125C34.3335 60.3733 34.2666 60.7125 34.0174 60.8821C33.9263 60.9427 33.8169 60.9729 33.7136 60.9729V60.979Z" fill="#F5F1D7"/>
<path d="M37.5363 60.6083C37.36 60.6083 37.1898 60.5235 37.0804 60.366L31.9205 52.771C31.7503 52.5227 31.8172 52.1835 32.0664 52.0139C32.3156 51.8443 32.6559 51.911 32.8261 52.1593L37.986 59.7543C38.1562 60.0026 38.0893 60.3418 37.8401 60.5114C37.749 60.572 37.6396 60.6022 37.5363 60.6022V60.6083Z" fill="#F5F1D7"/>
<path d="M46.9504 24.6022C47.8701 24.6022 48.6157 23.8592 48.6157 22.9427C48.6157 22.0262 47.8701 21.2832 46.9504 21.2832C46.0307 21.2832 45.2852 22.0262 45.2852 22.9427C45.2852 23.8592 46.0307 24.6022 46.9504 24.6022Z" fill="#2E5629"/>
<path d="M23.4533 65.8477L22.7422 65.0179C24.5776 63.4432 29.6342 59.791 36.891 59.791H36.897C44.0383 59.791 49.0523 63.3523 50.8756 64.8846L50.1706 65.7205C48.4385 64.2669 43.6797 60.8873 36.897 60.8873H36.891C29.9989 60.8873 25.1976 64.3577 23.4533 65.8537V65.8477Z" fill="#F5F1D7"/>
<path d="M4.64873 65.6976C4.56365 65.6976 4.47856 65.6673 4.40563 65.6068C4.25369 65.4735 4.23545 65.2434 4.36916 65.092L15.1388 52.8212C15.2725 52.6698 15.5034 52.6516 15.6554 52.7849C15.8073 52.9181 15.8255 53.1483 15.6918 53.2997L4.92223 65.5704C4.8493 65.6552 4.74598 65.6976 4.64873 65.6976Z" fill="#2E5629"/>
<path d="M6.92215 67.3737C6.84314 67.3737 6.76413 67.3495 6.6912 67.295C6.53318 67.1678 6.50887 66.9376 6.6365 66.7862L16.8834 54.0794C17.011 53.9219 17.242 53.8977 17.3939 54.0249C17.552 54.1521 17.5763 54.3822 17.4486 54.5336L7.20172 67.2405C7.12879 67.3313 7.02547 67.3737 6.91607 67.3737H6.92215Z" fill="#2E5629"/>
<path d="M52.4738 25.394C52.4069 25.394 52.334 25.3759 52.2732 25.3335C51.0334 24.534 50.5532 23.9344 50.6991 23.3893C50.766 23.1349 50.9483 23.0017 51.1185 22.8684C51.2643 22.7594 51.4224 22.6322 51.5804 22.4021C51.7141 22.2083 51.8113 21.9902 51.8721 21.754C51.9207 21.5602 52.1213 21.4391 52.3158 21.4936C52.5103 21.542 52.6318 21.7419 52.5771 21.9357C52.4981 22.2567 52.3644 22.5535 52.1821 22.82C51.9572 23.147 51.7262 23.3227 51.5621 23.4499C51.5014 23.4983 51.4163 23.5649 51.398 23.5892C51.398 23.5892 51.392 23.9041 52.6683 24.7339C52.8384 24.8429 52.8871 25.067 52.7777 25.2366C52.7108 25.3456 52.5893 25.4001 52.4738 25.4001V25.394Z" fill="#2E5629"/>
</g>
<defs>
<clipPath id="clip0_579_19515">
<rect width="322" height="74" fill="white"/>
</clipPath>
</defs>
</svg>
